<svg width="20" height="30" viewBox="0 0 20 30" fill="none" xmlns="http://www.w3.org/2000/svg">
<path d="M19.4578 29.5468C20.119 28.9942 20.1782 28.1269 19.6203 27.5219L19.4528 27.3638L3.17273 13.9077C2.444 13.3048 1.26661 13.3069 0.542835 13.9118C0.183424 14.2122 0 14.6072 0 15.0002C0 15.3311 0.127377 15.6606 0.380697 15.9351L0.547792 16.0927L16.8279 29.5489C17.5566 30.1517 18.734 30.1497 19.4578 29.5468ZM19.4526 2.63825C20.1838 2.0354 20.1788 1.05808 19.4575 0.45523C18.7941 -0.0992698 17.7495 -0.147207 17.0186 0.311419L16.8276 0.449058L6.01555 9.38484C5.65119 9.68524 5.46776 10.0823 5.46776 10.4774C5.46776 10.8704 5.65118 11.2654 6.0106 11.5658C6.67406 12.1203 7.71868 12.1682 8.44949 11.7096L8.6405 11.572L19.4526 2.63825Z" fill="white"/>
</svg>
