<svg width="700" height="200" viewBox="0 85 873 240" fill="none" xmlns="http://www.w3.org/2000/svg">
<path d="M252.949 170.722V233.364L172.67 313.643L141.659 282.632L221.53 202.746L142.521 123.737L174.272 92L252.949 170.722Z" fill="white" stroke="url(#paint3_radial_76_637)" stroke-width="5" stroke-miterlimit="10"/>
<path d="M3 170.722V233.364L83.2787 313.643L114.29 282.632L34.4193 202.746L113.429 123.737L81.6768 92L3 170.722Z" fill="white" stroke="url(#paint4_radial_76_637)" stroke-width="5" stroke-miterlimit="10"/>
<path d="M129.146 154.782L81.0874 202.825L129.146 250.884L177.189 202.825L129.146 154.782ZM110.754 202.825L129.146 184.433L147.538 202.825L129.146 221.217L110.754 202.825Z" fill="white" stroke="url(#paint5_radial_76_637)" stroke-width="5" stroke-miterlimit="10"/>
<path d="M289.949 303.638V97.7725H335.423V272.823H382.651V303.638H289.949Z" fill="white" stroke="url(#paint6_radial_76_637)" stroke-width="5" stroke-miterlimit="10"/>
<path d="M457.625 306.658C442.21 306.658 430.014 303.948 421.037 298.528C412.115 293.18 405.297 284.933 401.723 275.164C397.824 264.988 395.879 252.898 395.889 238.893V162.423C395.889 148.197 397.834 136.106 401.723 126.152C405.336 116.503 412.154 108.388 421.037 103.166C430.014 97.8259 442.21 95.156 457.625 95.156C473.211 95.156 485.533 97.8259 494.591 103.166C503.526 108.358 510.392 116.478 514.026 126.152C517.904 136.147 519.849 148.237 519.859 162.423V238.893C519.859 252.948 517.915 265.038 514.026 275.164C510.428 284.956 503.564 293.208 494.591 298.528C485.523 303.948 473.201 306.658 457.625 306.658ZM457.625 274.393C462.35 274.393 465.821 273.209 468.038 270.841C470.33 268.275 471.832 265.099 472.36 261.698C473.034 257.922 473.373 254.094 473.372 250.258V151.118C473.383 147.242 473.044 143.373 472.36 139.557C471.819 136.182 470.319 133.035 468.038 130.49C465.831 128.112 462.36 126.923 457.625 126.923C453.212 126.923 449.917 128.117 447.711 130.49C445.424 133.031 443.923 136.18 443.389 139.557C442.697 143.372 442.358 147.242 442.376 151.118V250.197C442.365 254.029 442.664 257.854 443.268 261.638C443.702 265.017 445.116 268.195 447.333 270.781C449.449 273.159 452.879 274.342 457.625 274.332V274.393Z" fill="white" stroke="url(#paint7_radial_76_637)" stroke-width="5" stroke-miterlimit="10"/>
<path d="M596.239 306.661C582.002 306.661 570.779 303.699 562.568 297.775C554.15 291.569 547.993 282.78 545.037 272.748C541.365 260.668 539.605 248.088 539.823 235.465V166.37C539.823 151.801 541.682 139.182 545.4 128.512C548.774 118.303 555.549 109.56 564.593 103.742C573.66 97.9089 585.982 94.9871 601.558 94.9771C616.792 94.9771 628.771 97.4958 637.496 102.533C645.919 107.292 652.498 114.743 656.176 123.691C660.091 133.72 661.991 144.422 661.767 155.186V168.395H617.321V151.635C617.342 147.552 617.044 143.475 616.429 139.439C616.016 136.076 614.6 132.916 612.364 130.371C610.248 128.094 606.818 126.951 602.072 126.94C597.166 126.94 593.609 128.255 591.403 130.885C589.12 133.689 587.67 137.076 587.216 140.663C586.607 144.699 586.309 148.777 586.325 152.859V248.069C586.298 252.385 586.765 256.69 587.715 260.9C588.466 264.535 590.232 267.883 592.808 270.557C595.256 273.005 598.778 274.229 603.387 274.229C607.996 274.229 611.775 272.96 614.314 270.421C616.97 267.675 618.816 264.25 619.648 260.522C620.679 256.277 621.187 251.923 621.16 247.555V223.541H602.586V196.852H662.024V303.638H632.01L629.472 286.606C626.783 292.333 622.672 297.275 617.533 300.963C612.304 304.762 605.206 306.661 596.239 306.661Z" fill="white" stroke="url(#paint8_radial_76_637)" stroke-width="5" stroke-miterlimit="10"/>
<path d="M682.94 303.638V97.7725H728.415V303.638H682.94Z" fill="white" stroke="url(#paint9_radial_76_637)" stroke-width="5" stroke-miterlimit="10"/>
<path d="M811.005 306.661C795.449 306.661 783.137 303.805 774.07 298.092C765.127 292.569 758.356 284.138 754.892 274.214C751.154 263.967 749.29 251.902 749.3 238.019V163.831C749.3 149.594 751.164 137.358 754.892 127.122C758.339 117.22 765.118 108.823 774.07 103.365C783.137 97.7729 795.459 94.9771 811.036 94.9771C826.279 94.9771 838.178 97.4958 846.732 102.533C855.008 107.227 861.413 114.63 864.867 123.495C868.585 133.398 870.395 143.915 870.202 154.491V172.158H825.74V151.635C825.749 147.732 825.537 143.831 825.106 139.953C824.821 136.563 823.538 133.334 821.418 130.673C819.393 128.225 815.917 126.986 811.005 126.986C806.094 126.986 802.754 128.255 800.426 130.794C798.085 133.481 796.587 136.797 796.119 140.33C795.505 144.331 795.206 148.373 795.228 152.42V249.233C795.192 253.452 795.576 257.664 796.376 261.806C796.951 265.213 798.53 268.37 800.91 270.874C803.192 273.171 806.547 274.305 810.945 274.305C815.69 274.305 819.081 273.08 821.116 270.632C823.261 267.877 824.582 264.571 824.924 261.096C825.43 257.137 825.682 253.149 825.68 249.157V227.591H870.141V245.379C870.311 256.066 868.544 266.695 864.927 276.753C861.563 285.867 855.207 293.571 846.898 298.606C838.385 303.976 826.42 306.661 811.005 306.661Z" fill="white" stroke="white" stroke-width="5" stroke-miterlimit="10"/>

</svg>
