<svg width="20" height="30" viewBox="0 0 20 30" fill="none" xmlns="http://www.w3.org/2000/svg">
<path d="M0.542215 0.453169C-0.118978 1.00578 -0.178243 1.87305 0.379694 2.47811L0.547173 2.63619L16.8273 16.0923C17.556 16.6952 18.7334 16.6931 19.4572 16.0882C19.8166 15.7878 20 15.3928 20 14.9998C20 14.6689 19.8726 14.3394 19.6193 14.0649L19.4522 13.9073L3.17211 0.451111C2.44338 -0.151739 1.266 -0.149683 0.542215 0.453169ZM0.547421 27.3617C-0.183796 27.9646 -0.178838 28.9419 0.542463 29.5448C1.20593 30.0993 2.25055 30.1472 2.98135 29.6886L3.17236 29.5509L13.9844 20.6152C14.3488 20.3148 14.5322 19.9177 14.5322 19.5226C14.5322 19.1296 14.3488 18.7346 13.9894 18.4342C13.3259 17.8797 12.2813 17.8318 11.5505 18.2904L11.3595 18.428L0.547421 27.3617Z" fill="white"/>
</svg>
